<svg width="140" height="15" viewBox="0 0 140 15" fill="none" xmlns="http://www.w3.org/2000/svg">
<path d="M15.5977 -0.00390625L8.9668 13.502C8.86263 13.7103 8.70638 13.8763 8.49805 14C8.29622 14.1302 8.07161 14.1953 7.82422 14.1953C7.58333 14.1953 7.35872 14.1302 7.15039 14C6.94857 13.8763 6.79232 13.7103 6.68164 13.502L0.0605469 -0.00390625H2.90234L7.82422 10.084L12.7656 -0.00390625H15.5977ZM30.4023 14H27.8633V10.5625H18.9375V14H16.3984V6.99805C16.3984 5.97591 16.5742 5.03516 16.9258 4.17578C17.2773 3.31641 17.7656 2.57747 18.3906 1.95898C19.0156 1.34049 19.7546 0.858724 20.6074 0.513672C21.4603 0.16862 22.3913 -0.00390625 23.4004 -0.00390625H29.123C29.2988 -0.00390625 29.4648 0.0286458 29.6211 0.09375C29.7773 0.158854 29.9141 0.25 30.0312 0.367188C30.1484 0.484375 30.2396 0.621094 30.3047 0.777344C30.3698 0.933594 30.4023 1.09961 30.4023 1.27539V14ZM18.9375 8.02344H27.8633V2.53516H23.4004C23.3223 2.53516 23.1562 2.54818 22.9023 2.57422C22.6549 2.59375 22.3652 2.64909 22.0332 2.74023C21.7077 2.83138 21.3626 2.97135 20.998 3.16016C20.6335 3.34896 20.2982 3.60938 19.9922 3.94141C19.6862 4.27344 19.4323 4.6901 19.2305 5.19141C19.0352 5.6862 18.9375 6.28841 18.9375 6.99805V8.02344ZM46.7012 4.68359C46.7012 5.26302 46.6263 5.7806 46.4766 6.23633C46.3333 6.69206 46.1413 7.0957 45.9004 7.44727C45.6595 7.79232 45.3763 8.08854 45.0508 8.33594C44.7318 8.58333 44.3997 8.78841 44.0547 8.95117C43.7096 9.10742 43.3581 9.22135 43 9.29297C42.6484 9.36458 42.3164 9.40039 42.0039 9.40039H40.9785V14H38.4199V9.40039H37.4043C37.0918 9.40039 36.7565 9.36458 36.3984 9.29297C36.0469 9.22135 35.6953 9.10742 35.3438 8.95117C34.9987 8.78841 34.6667 8.58333 34.3477 8.33594C34.0286 8.08854 33.7454 7.79232 33.498 7.44727C33.2572 7.0957 33.0618 6.69206 32.9121 6.23633C32.7689 5.77409 32.6973 5.25651 32.6973 4.68359V-0.00390625H35.2363V4.68359C35.2363 5.01562 35.2884 5.3151 35.3926 5.58203C35.4967 5.84245 35.6432 6.06706 35.832 6.25586C36.0208 6.44466 36.2487 6.59115 36.5156 6.69531C36.7891 6.79297 37.0918 6.8418 37.4238 6.8418H42.0039C42.2448 6.80273 42.4922 6.75391 42.7461 6.69531C43 6.63021 43.2311 6.52279 43.4395 6.37305C43.6478 6.22331 43.8203 6.01497 43.957 5.74805C44.0938 5.48112 44.1621 5.1263 44.1621 4.68359V-0.00390625H46.7012V4.68359ZM62.707 12.7207C62.707 12.903 62.6745 13.0723 62.6094 13.2285C62.5443 13.3848 62.4531 13.5215 62.3359 13.6387C62.2188 13.7493 62.082 13.8372 61.9258 13.9023C61.7695 13.9674 61.6035 14 61.4277 14H55.7051C55.1647 14 54.6178 13.9414 54.0645 13.8242C53.5111 13.707 52.974 13.528 52.4531 13.2871C51.9388 13.0397 51.4538 12.7272 50.998 12.3496C50.5423 11.972 50.1419 11.526 49.7969 11.0117C49.4583 10.4909 49.1914 9.89844 48.9961 9.23438C48.8008 8.5638 48.7031 7.81836 48.7031 6.99805V-0.00390625H51.2422V6.99805C51.2422 7.71419 51.3398 8.31966 51.5352 8.81445C51.737 9.30924 51.9909 9.72266 52.2969 10.0547C52.6029 10.3867 52.9382 10.6471 53.3027 10.8359C53.6673 11.0247 54.0124 11.1647 54.3379 11.2559C54.6699 11.347 54.9596 11.4056 55.207 11.4316C55.4609 11.4512 55.627 11.4609 55.7051 11.4609H60.168V-0.00390625H62.707V12.7207ZM72.0625 4.99609L76.3398 -0.00390625H79.8066L73.7812 7.01758L79.7676 14H76.3203L72.0625 9.03906L67.8242 14H64.3672L70.3438 7.01758L64.3477 -0.00390625H67.7852L72.0625 4.99609ZM83.9668 14H81.4277V-0.00390625H83.9668V14ZM104.953 8.27734H96.9355V5.71875H104.953V8.27734ZM106.096 14H96.9355C96.584 14 96.1999 13.9382 95.7832 13.8145C95.3665 13.6908 94.9792 13.4889 94.6211 13.209C94.2695 12.9225 93.9733 12.5547 93.7324 12.1055C93.498 11.6497 93.3809 11.0931 93.3809 10.4355V1.27539C93.3809 1.09961 93.4134 0.933594 93.4785 0.777344C93.5436 0.621094 93.6315 0.484375 93.7422 0.367188C93.8594 0.25 93.9961 0.158854 94.1523 0.09375C94.3086 0.0286458 94.4779 -0.00390625 94.6602 -0.00390625H106.096V2.53516H95.9199V10.4355C95.9199 10.7676 96.0078 11.0215 96.1836 11.1973C96.3594 11.373 96.6165 11.4609 96.9551 11.4609H106.096V14ZM122.551 4.70312C122.551 5.28255 122.479 5.80013 122.336 6.25586C122.193 6.71159 121.997 7.11523 121.75 7.4668C121.509 7.81185 121.229 8.10807 120.91 8.35547C120.591 8.60286 120.256 8.80794 119.904 8.9707C119.559 9.12695 119.208 9.24089 118.85 9.3125C118.498 9.38411 118.166 9.41992 117.854 9.41992L123.156 14H119.23L113.938 9.41992H112.111V6.88086H117.854C118.173 6.85482 118.462 6.78971 118.723 6.68555C118.99 6.57487 119.217 6.42839 119.406 6.24609C119.602 6.0638 119.751 5.8457 119.855 5.5918C119.96 5.33138 120.012 5.03516 120.012 4.70312V3.10156C120.012 2.95833 119.992 2.85091 119.953 2.7793C119.921 2.70117 119.875 2.64583 119.816 2.61328C119.764 2.57422 119.706 2.55143 119.641 2.54492C119.582 2.53841 119.527 2.53516 119.475 2.53516H111.096V14H108.557V1.27539C108.557 1.09961 108.589 0.933594 108.654 0.777344C108.719 0.621094 108.807 0.484375 108.918 0.367188C109.035 0.25 109.172 0.158854 109.328 0.09375C109.484 0.0286458 109.654 -0.00390625 109.836 -0.00390625H119.475C120.041 -0.00390625 120.52 0.10026 120.91 0.308594C121.301 0.510417 121.617 0.767578 121.857 1.08008C122.105 1.38607 122.281 1.7181 122.385 2.07617C122.495 2.43424 122.551 2.76953 122.551 3.08203V4.70312ZM139.055 5.85547C139.055 6.4349 138.983 6.95247 138.84 7.4082C138.697 7.86393 138.501 8.26758 138.254 8.61914C138.013 8.96419 137.733 9.26042 137.414 9.50781C137.095 9.75521 136.76 9.95703 136.408 10.1133C136.063 10.2695 135.712 10.3835 135.354 10.4551C135.002 10.5267 134.67 10.5625 134.357 10.5625H128.615V8.02344H134.357C134.683 7.9974 134.976 7.93229 135.236 7.82812C135.503 7.71745 135.731 7.57096 135.92 7.38867C136.109 7.20638 136.255 6.98828 136.359 6.73438C136.464 6.47396 136.516 6.18099 136.516 5.85547V4.70312C136.483 4.38411 136.415 4.09115 136.311 3.82422C136.206 3.55729 136.063 3.32943 135.881 3.14062C135.705 2.95182 135.49 2.80534 135.236 2.70117C134.982 2.59049 134.689 2.53516 134.357 2.53516H128.635C128.296 2.53516 128.039 2.62305 127.863 2.79883C127.688 2.97461 127.6 3.22852 127.6 3.56055V14H125.061V3.56055C125.061 2.90951 125.178 2.35612 125.412 1.90039C125.653 1.44466 125.949 1.07682 126.301 0.796875C126.659 0.516927 127.046 0.315104 127.463 0.191406C127.88 0.0611979 128.264 -0.00390625 128.615 -0.00390625H134.357C134.93 -0.00390625 135.445 0.0709635 135.9 0.220703C136.356 0.363932 136.757 0.559245 137.102 0.806641C137.453 1.04753 137.749 1.32747 137.99 1.64648C138.238 1.96549 138.439 2.30078 138.596 2.65234C138.758 2.9974 138.876 3.34896 138.947 3.70703C139.019 4.05859 139.055 4.39062 139.055 4.70312V5.85547Z" fill="white"/>
</svg>
